<?xml version="1.0" standalone="yes"?>
<svg xmlns="http://www.w3.org/2000/svg" width="735" height="613">
<path style="fill:#ffffff; stroke:none;" d="M0 0L0 613L735 613L735 0L0 0z"/>
<path style="fill:#aad5ff; stroke:none;" d="M573 25L575 20C577.641 21.2613 580.413 22.5616 581.987 25.1852C584.349 29.1239 583.599 34.2056 588.188 36.8202C592.844 39.4727 599.976 35.8516 604 33.3071C606.532 31.7064 608.737 29.126 612 30.1713C613.443 30.6336 614.787 31.707 615.995 32.5848C623.813 38.2622 620.047 42.847 619.174 51C618.612 56.2466 620.446 61.9179 619.597 66.9854C619.145 69.6855 616.982 71.5594 616.313 74.1697C615.073 79.0064 616 85.0227 616 90C614.383 88.7012 613.328 87.6102 612 86L610 86C605.233 92.6552 599.323 99.5337 596 107C601.676 111.061 605.331 111.916 612 113C609.279 116.537 606.372 118.323 606 123C608.862 122.877 613.008 121.563 615.61 123.067C619.127 125.099 619.806 129.753 624.015 131.218C628.202 132.676 631.988 130.008 636 129.484C638.999 129.092 641.134 131.195 644 131.503C646.707 131.794 649.262 130.293 651.985 130.837C655.359 131.511 656.741 134.225 658.95 136.471C662.002 139.573 666.128 143.116 670 145C669.129 140.78 669.807 138.885 673 136C675.474 141.884 679.689 147.138 686 149C688.052 145.986 690.326 143.246 692 140C694.627 140.315 695.6 140.124 698 139C700.659 143.555 703.991 143.955 709 144C709 141.049 709.289 137.875 708.501 135C707.513 131.397 704.376 128.598 703.589 125C702.76 121.214 707.767 114.086 711.21 112.603C715.028 110.959 719.938 112.201 724 111C722.902 105.122 725.292 98.9454 725.829 93C726.342 87.3341 724.804 81.7047 725.018 76C725.171 71.9596 727.741 68.8351 728.05 65.0008C728.31 61.7721 725.934 57.1696 725 54C715.049 57.383 709.777 67.8958 700.985 72.7222C692.769 77.2328 686.137 76.9985 682.245 67.9992C681.081 65.3084 679.827 62.8168 679 60C673.622 59.7204 670.048 56.5252 665 55.4923C658.505 54.1633 648.615 56.6296 643.665 51.7214C639.907 47.9951 637.711 43.1857 634.6 39C630.408 33.3597 625.787 28.159 622.309 22C619.01 16.1589 614.633 6.45557 607.982 3.96991C604.096 2.51782 600.022 3.53345 596 3.15662C586.833 2.29779 578.648 -0.550659 570.192 5.27466C567.264 7.29156 568.806 9.5387 568.749 12.4244C568.622 18.8452 565.238 21.9481 573 25z"/>
<path style="fill:#d1e8fe; stroke:none;" d="M586.667 1.33331C586.222 1.77783 587.278 1.72217 587.333 1.66669C587.778 1.22223 586.722 1.27753 586.667 1.33331M591.667 2.33331C591.222 2.77789 592.278 2.72217 592.333 2.66669C592.778 2.22211 591.722 2.27765 591.667 2.33331z"/>
<path style="fill:#c8e4ff; stroke:none;" d="M602 2C603.506 2.68311 604.315 2.82587 606 3C604.494 2.31696 603.685 2.17407 602 2z"/>
<path style="fill:#f5fafe; stroke:none;" d="M562 9C570.621 9.39203 563.712 17.1224 566.071 21.8951C568.657 27.1268 573.535 26.2824 576 22C581.767 25.952 580.849 32.1226 585.419 36.6821C588.089 39.3464 592.49 39.3456 596 40C601.231 34.5912 616.207 26.8247 619.096 39.0394C620.052 43.077 617.305 47.8983 617.105 52C616.892 56.3586 618.28 60.6042 617.941 64.9854C617.707 68.014 615.939 70.2155 615.299 73.0895C614.326 77.4579 615 82.5392 615 87C612.885 85.4269 611.53 84.6482 609 84C604.022 92.9417 586.909 108.242 603.995 113.896C605.963 114.547 607.991 114.19 610 114C605.76 116.597 602.385 119.217 606 124C604.015 126.747 603.241 128.621 603 132C599.282 130.822 595.908 130.083 592 130C592.161 134.907 594.681 136.77 596.441 141.039C597.878 144.527 598.01 148.451 599.425 152C600.2 153.943 601.06 157.889 603.313 158.658C606.266 159.666 610.59 155.384 613 154C614.28 156.877 616.274 159.201 617.688 161.999C619.518 165.621 618.892 168.349 623 170C619.865 176.723 615.365 177.609 609.594 180.969C601.122 185.902 589.6 192.512 586 202L584 202C582.205 198.609 579.939 196.45 577 194C571.669 199.225 579.237 210.466 571.891 213.392C569.343 214.407 566.618 213.581 564.765 211.682C560.452 207.262 560.631 200.073 554.96 196.647C548.166 192.542 542.804 201.184 544 207C539.73 208.031 535.02 208.289 531 210.17C527.788 211.673 525.077 214.224 522 216C521.352 213.291 521.058 210.784 521 208C512.725 208.457 508.561 217.156 509.12 225C509.329 227.939 511.905 231.846 510.184 234.606C507.539 238.846 498.334 239.358 494.04 241.495C490.37 243.322 488.93 246.858 486.24 249.701C483.749 252.335 480.046 254.072 477 256C478.855 264.639 472.022 270.929 471.809 279C471.724 282.199 474.152 284.819 474.281 288C474.452 292.22 471.299 295.767 471.195 300C471.038 306.384 474.302 312.617 474.617 319C474.839 323.486 472.233 327.533 472.383 332C472.582 337.935 476.541 343.26 479.666 348C481.224 350.363 484.119 353.703 482.928 356.762C482.098 358.896 479.855 358.992 477.91 359.031C473.168 359.126 468.585 358.645 464 360C465.821 363.792 468.112 365.47 472 367C469.5 368.895 466.341 370.705 465.701 374.043C465.301 376.125 467.261 380.48 464.718 381.673C462.125 382.888 455.821 378.139 453 377.532C449.669 376.816 446.285 377.852 443 376.945C438.247 375.634 434.559 371.371 429.91 370.328C426.481 369.558 422.484 370.85 419 371C418.518 368.636 418.364 368.482 416 368C416.573 364.474 416.502 362.258 415 359C417.709 358.352 420.216 358.058 423 358C422.924 353.97 424.618 349.915 424.417 346.09C424.314 344.125 422.785 342.723 422.514 340.83C422.163 338.378 423.659 335.456 424 333C430 333.731 438.285 337.964 439 329C442.406 328.998 448.671 329.933 450.077 325.772C450.793 323.652 449.945 321.204 450.355 319C450.945 315.829 452.548 313.214 450.392 310.21C446.332 304.553 430.418 302.784 432.337 294.015C434.178 285.603 442.106 291.179 446.816 288.292C450.883 285.799 453.429 279.764 456.294 276.054C457.987 273.862 460.424 272.103 461.851 269.741C464.366 265.578 464.225 262.356 469 260C462.722 258.03 462.364 264.832 460.002 268.741C455.914 275.507 449.526 280.58 446 288C442.833 287.246 439.193 287.524 436.17 286.415C430.883 284.476 426.721 281.324 421 280C422.079 276.357 425.174 272.782 425.372 269C425.824 260.36 418.418 259.879 413.703 265.515C409.418 270.636 410.528 278.286 407.683 283.996C405.556 288.265 401.426 290.768 397 292.106C394.22 292.947 391.699 293.394 389.001 292.052C387.975 291.543 386.929 290.835 386.059 290.093C379.122 284.175 385.874 281.73 388.436 275.91C390.249 271.792 390.507 264.779 385.671 262.603C378.358 259.313 373.771 265.901 368 268.566C360.327 272.11 349.408 269.548 347 261C341.345 259.671 336.515 256.278 334 251C337.566 249.397 345.703 244.067 340.664 239.603C337.247 236.577 327.132 237.4 323 238.505C320.782 239.099 318.488 240.881 316.093 240.312C313.575 239.713 311.984 236.934 310.58 234.996C305.921 228.566 307.213 225.256 306.701 218C306.487 214.959 305.304 212.054 305 209L315 209C311.568 207.56 307.7 208 304 208C304.025 217.155 303.451 228.325 308.671 235.996C310.443 238.599 312.666 242.176 316.015 242.863C319.044 243.485 321.405 241 324 239.934C327.552 238.475 335.538 237.853 338.573 240.738C342.482 244.454 334.689 248.113 333.662 251.289C331.659 257.479 341.469 261.498 346 262L345 266C351.525 270.122 360.166 273.852 368 270.968C373.658 268.884 377.132 261.518 383.952 264.515C395.078 269.403 378.739 280.628 381.604 287.907C384.083 294.202 392.18 293.831 396.385 298.148C399.599 301.447 402.875 305.52 404.149 309.996C405.004 313 404.357 316.891 405.628 319.66C407.206 323.1 410.805 324.114 412 328L422 329L422 323C426.693 322.219 427.39 319.4 428 315C421.322 310.138 421.944 305.317 424 298C430.09 300.75 436.098 303.63 442 306.782C444.356 308.04 447.728 309.546 448.829 312.185C449.796 314.506 448.16 316.713 447.914 319C447.717 320.834 448.617 322.944 447.764 324.682C446.221 327.826 441.979 326.206 439.603 328.023C438.026 329.23 438.137 331.238 438 333L422 332C421.649 334.883 420.147 338.017 420.427 340.91C420.639 343.103 422.143 344.829 422.108 347.09C422.058 350.345 421.291 352.699 422 356C418.602 356.079 416.068 356.522 413 358C413.532 360.104 414.651 362.711 413.764 364.858C412.267 368.481 408.719 368.672 408 373C403.928 372.997 399.384 373.461 396.599 369.852C394.99 367.768 395.054 364.587 392.683 363.098C388.299 360.346 384.114 360.092 380.314 355.715C378.432 353.547 378.062 349.581 375.567 348.071C370.931 345.265 363.764 350.557 363 355C358.302 352.862 351.468 349.589 349 345C350.264 345.767 351.578 346.786 353.045 347.177C360.922 349.273 361.46 340.292 364 335C359.677 337.384 361.408 342.679 357.682 344.879C354.856 346.548 350.816 343.713 348 343C345.818 354.859 365.179 352.213 365 364C356.291 364.15 346.64 361.317 346 373C342.262 372.718 339.816 371.652 337.104 368.942C335.163 367.003 333.57 363.626 330.791 362.784C328.367 362.049 325.524 363.216 323 362.917C315.739 362.057 305.949 359.164 299.414 364.599C295.625 367.75 294.901 372.877 292.84 377.004C290.882 380.926 287.726 383.922 286 388C282.017 386.97 278.116 386.177 274 386C282.012 390.267 287.941 388.611 292.737 381C293.91 379.139 294.935 372.494 297.724 372.681C302.467 372.998 307.693 380.328 309.765 384.004C311.171 386.497 313.119 389.176 313.751 392C314.342 394.642 313.483 397.318 314.096 400C316.095 408.742 318.78 417.815 316.697 426.999C315.939 430.339 313.362 432.327 311.938 435.285C310.533 438.203 311 441.853 311 445C306.763 444.346 302.072 441.9 298 441.727C294.714 441.587 291.388 443.757 288 444C292.096 446.037 294.576 442.945 298.424 443.723C304.365 444.924 305.61 452.107 306 457C316.105 459.931 311.474 478.059 310 486C313.698 481.119 313.01 471.041 313 465C312.996 462.771 313.447 459.631 311.977 457.742C310.765 456.185 308.761 456.203 307 456L306 446C313.248 447.508 311.886 443.379 313.559 438.002C314.322 435.552 315.882 433.299 317 431C319.36 435.702 320.329 440.801 321 446L325 446C323.752 445.315 323.452 445.251 322 445C321.807 435.645 319.059 426.348 318.17 417C317.592 410.932 316.466 404.968 315.864 399C315.341 393.81 315.805 390.917 313.219 386C310.001 379.881 305.625 376.662 301.337 371.562C300.06 370.043 299.283 368.254 300.662 366.51C305.426 360.485 316.996 364.124 323 364.812C325.601 365.111 328.452 364.54 330.83 365.889C334.661 368.062 336.468 373.058 340.999 374.222C349.045 376.289 348.386 361.352 356 368C359.4 366.761 362.377 366.085 366 366C366.586 363.706 367.445 361.398 367.112 358.999C366.859 357.177 365.548 355.258 366.302 353.394C367.412 350.649 372.896 348.657 375.262 350.697C377.511 352.635 377.943 356.34 380.147 358.575C383.524 361.997 388.094 362.863 391.401 365.75C394.296 368.277 393.698 371.962 398.019 373.436C406.474 376.32 409.611 369.832 417 369L417 373L432 372C433.436 376.914 439.322 376.038 442.523 379.565C444.692 381.954 444 386.026 444 389C437.934 390.003 439.218 394.331 436.686 398.816C433.998 403.577 430.265 405.217 429 411C420.133 408.895 410.809 414.195 415.603 424.621C416.787 427.195 419.834 428.357 421.723 430.329C424.047 432.755 424.977 435.888 426 439L417 437C412.38 445.447 418.192 445.872 423 452C419.813 452.841 416.411 454.347 413.129 453.095C410.438 452.068 408.966 448.979 405.946 448.706C403.193 448.457 400.135 451.158 397.599 449.15C394.259 446.505 395.828 439.563 390.005 439.377C385.396 439.229 382.887 447.582 381.742 451.004C380.221 455.545 376.036 458.467 374.564 463C372.773 468.515 374.769 473.541 372 479C367.129 476.902 361.442 482.752 357.637 479.458C352.141 474.701 349.565 464.196 345.651 458.039C343.17 454.137 339.572 453.042 336.357 450.117C333.065 447.12 335.362 439.446 328.516 442.451L327 444C329.625 443.499 331.395 443.425 334 444C332.849 446.289 331.795 448.24 333.621 450.587C336.521 454.314 341.435 455.939 344.363 460.001C348.686 465.998 350.82 477.892 357.39 481.806C361.721 484.385 366.284 479.392 371 481C377.842 475.788 373.956 470.856 376.274 464C378.958 456.063 387.309 449.71 388 441L393 441C393.654 444.185 394.421 451.018 398.148 452.045C400.883 452.798 404.074 449.978 406.578 451.816C411.458 455.4 404.097 460.356 401 461C407.091 463.349 407.651 457.598 412.224 455.603C415.943 453.98 420.986 454.272 425 453C423.861 447.613 420.055 445.489 415 444C419.036 438.837 424.051 440.312 430 441C432.647 437.637 434.706 435.664 439 435L440 430C443.7 430.687 447.237 430.99 451 431C452.462 436.624 456.755 440.339 460 445L466 442C466.581 444.818 467.894 448.103 467.512 451C466.977 455.065 463.11 458.622 461 462L471 463C470.191 465.877 469.036 468.966 469.363 472C469.613 474.312 471.215 476.594 470.559 478.961C469.297 483.511 463.286 485.928 461 490L455 488C454.311 488.867 453.461 490.222 452.55 490.972C447.213 495.368 444.424 489.39 439 490.005C432.676 490.721 423.958 497.847 423 504C418.605 503.219 413.44 499.312 409 499.978C405.829 500.453 403.144 503.129 400 504C400.481 501.405 401.218 498.643 400.672 496C400.088 493.169 397.94 490.945 397.777 488C397.48 482.624 403.779 470.843 393.044 472.773C391.696 473.015 390.297 473.59 389 474C386.597 464.216 390.694 462.109 400 461C396.299 459.49 391.989 460.569 388 460C384.788 465.869 385.393 469.966 388 476L397 473C398.095 478.633 394.992 483.522 395.606 489C395.98 492.327 398.795 494.625 399.093 498C399.401 501.502 397.214 505.432 399.333 508.682C400.87 511.04 403.586 510.681 405.914 511.583C408.189 512.465 409.861 514.328 412.09 515.302C417.865 517.826 423.415 515.954 423 524C418.354 524.37 416.74 526.349 417 531C419.049 527.936 423.003 526.023 424.547 522.857C425.977 519.925 424.891 517.03 421.938 515.738C415.017 512.712 403.781 512.498 400 505C403.761 504.72 407.356 501.906 411 502.268C414.465 502.612 418.123 506.193 421.701 505.187C424.071 504.52 425.394 501.1 427.143 499.517C431.027 496.004 436.128 492.847 441 491C444.798 497.032 452.398 496.493 455 490C462.474 491.706 465.274 486.776 471.039 483.027C474.639 480.687 478.019 480.312 481 477L482 480C487.927 478.357 491.461 473.993 498 474L498 480L502 480C500.392 485.573 496.903 490.209 496 496C498.53 495.352 499.885 494.573 502 493L504 499C505.013 496.082 504.041 493.866 503 491C500.982 491.878 499.768 492.651 498 494C500.2 488.868 502.735 484.706 503 479L500 479C499.112 467.503 488.648 474.189 483 478L482 475C480.329 475.781 477.83 477.915 475.934 477.812C467.349 477.348 475.829 462.446 467.986 460.496C466.721 460.182 465.197 460.753 464 461C465.919 458.609 468.503 456.039 469.321 453C470.462 448.758 467.863 443.183 467 439C464.783 440.163 463.606 441.086 462 443C458.545 439.472 455.409 432.811 451.454 430.215C448.613 428.349 442.412 428.492 439 428C436.953 433.05 432.041 434.125 430 439L428 439C427.098 435.823 426.498 432.11 424.297 429.529C422.225 427.098 418.872 426.013 417.603 422.896C416.416 419.977 417 416.091 417 413C422.085 412.184 425.918 412.509 431 413C431.21 406.556 434.896 405.627 438.012 400.7C441.061 395.877 439.274 391.402 446 390L446 379C452.607 378.827 456.429 381.822 462.285 383.991C464.469 384.8 466.78 383.979 468.956 384.692C474.338 386.455 474.899 393.27 475 398C471.649 398.91 469.202 401.035 466 402.277C462.568 403.609 458.327 403.129 455.164 405.164C451.86 407.29 453.126 410.798 453.85 413.981C455.576 421.567 464.06 424.549 465 433C467.07 428.43 467.509 423.78 472.043 420.616C477.134 417.063 486.97 422.054 483 412C487.907 412 493.211 411.454 498 412.709C501.86 413.72 505.106 417.45 509 417.843C511.709 418.117 514.579 415.989 517 415L518 419C521.727 417.91 523.941 415.3 527 413C527.633 415.626 527.625 419.192 529.174 421.455C531.972 425.543 536.438 427.187 536.678 433C536.862 437.464 533.102 439.551 531.6 443.285C530.546 445.904 531 449.234 531 452L535 452C535.061 458.77 538.379 462.822 540 469C542.298 463.365 536.179 457.155 536 451L533 451C533.079 444.29 538.558 440.208 538.762 434C538.888 430.153 534.106 425.182 535.994 421.674C537.663 418.571 542.243 417.637 545 415.817C548.118 413.759 550.645 410.699 554 409.02C556.476 407.781 559.392 407.771 562 406.895C565.779 405.626 569.041 403.706 573 403C571.973 405.398 571.322 407.416 571 410C575.047 409.378 577.653 407.249 581 405C583.504 408.863 588.737 408.209 593 409C590.378 416.467 600.271 421.261 597.759 427.907C595.574 433.691 588.343 432.503 584.804 436.328C582.235 439.105 582.558 442.798 580.991 445.999C579.657 448.724 577.121 450.672 575.859 453.424C574.601 456.167 575.49 459.123 575.106 462C574.65 465.414 573.305 468.528 573 472C576.664 466.887 576.21 461.714 577.6 456C578.422 452.62 581.209 450.212 582.43 447C583.572 443.996 583.682 440.862 585.92 438.317C588.026 435.923 591.334 435.844 593.996 434.348C596.505 432.938 599.128 429.249 602.062 428.907C606.193 428.425 608.17 437.096 609 440C613.244 439.949 615.531 439.612 618 436C620.359 438.016 622.024 439.188 625 440C623.392 437.62 621.147 435.939 619 434C617.148 435.159 614.579 437.467 612.212 437.083C608.873 436.542 608.21 431.606 606.586 429.299C603.108 424.355 593.355 419.694 594.99 412C595.709 408.617 598.95 406.11 600.343 403C601.431 400.568 600.841 397.582 602.214 395.313C603.7 392.857 606.972 392.743 608.012 389.853C609.089 386.855 607.618 380.949 610.603 378.877C612.52 377.546 615.136 379.271 617 379.875C621.169 381.225 623.721 380.712 626 377L631 379C628.55 381.939 626.391 384.205 623 386C627.869 387.278 641.464 376.597 638.914 371.107C636.352 365.595 623.484 362.303 618 361C619.478 360.014 619.203 360 621 360C618.956 359.226 618.155 359.408 616 360L616 362C622.809 363.974 633.047 366.603 626.035 374.941C624.895 376.297 623.557 377.764 621.83 378.353C618.308 379.553 615.319 376.581 612 376.059C607.662 375.376 602.441 376.012 598 376C597.309 371.617 593.611 369.909 592.483 365.961C590.939 360.555 595.422 357.349 600 357C599.458 352.185 597.66 350.247 593 349L591 353C583.575 350.046 582.006 345.53 582 338C574.14 337.021 560.748 331.165 557 324C560.476 324.892 563.452 327.172 567 327.772C572.424 328.688 576.567 327.033 582 329C584.228 323.967 588.18 320.243 590 315C586.382 317.231 583.18 321.927 582 326C576.691 324.402 573.08 326.682 568 326.044C564.821 325.645 562.347 322.577 559.104 322.736C555.885 322.894 554.055 326.707 550.957 327.566C545.235 329.152 540.899 325.057 536 323C539.16 316.215 545.842 311.812 549 305C545.876 305.311 543.028 306.198 540 307C539.939 304.286 538.983 301.075 539.437 298.424C540.432 292.613 546.782 283.622 551.055 279.733C556.203 275.047 562.641 273.402 566 267C569.883 269.04 572.757 268.533 577 268C574.421 266.981 571.576 267.63 569.018 266.512C567.282 265.753 565.898 264.439 564.819 262.905C564.01 261.756 563.304 260.356 562.924 258.999C559.92 248.25 575.022 251.738 580.016 245.363C582.569 242.103 583.408 237.611 586.093 234.274C588.912 230.772 592.841 228.847 595.48 224.996C597.816 221.588 599.661 216.409 604.043 215.207C610.977 213.305 612.731 219.886 612 225C617.591 217.924 609.722 210.947 602.104 214.032C595.036 216.895 593.173 227.2 586 231C583.679 225.695 577.263 225.523 575.213 220.811C573.882 217.753 576.366 214.052 576.789 211C577.485 205.989 575.778 201.029 576 196C579.384 198.634 581.848 201.287 584 205L586 205C591.671 194.777 600.515 189.405 610.286 183.47C616.729 179.556 623.673 177.602 625 169C628.888 170.754 631.355 172.638 634 176L639 174C640.978 177.972 643.934 181.181 646.147 185C647.618 187.539 648.054 190.462 649.508 193C651.123 195.817 654.393 198.509 654.393 202C654.393 206.238 649.675 210.241 648 214C652.386 210.772 658.843 205.422 661.722 200.791C665.05 195.438 663.904 188.085 672 189C663.983 181.592 662.01 199.658 656 203C655.663 197.984 653.136 195.322 650.944 191C647.334 183.879 643.235 177.801 639 171C632.46 172.05 627.778 166.941 621 168C619.892 163.554 617.499 152.204 610.961 153.059C608.1 153.434 605.308 156.43 603 158C602.592 154.01 600.865 150.808 599.789 147C599.083 144.503 599.382 141.681 598.399 139.285C597.12 136.17 594.769 134.392 594 131C597.335 132.249 600.442 132.845 604 133C604.22 131.578 604.232 130.243 605.028 128.975C605.629 128.017 606.237 127.025 607.148 126.316C615.585 119.751 617.699 132.096 625.001 133.277C628.714 133.877 632.304 131.295 635.985 131.178C639.016 131.082 641.095 133.594 644.089 133.525C646.771 133.463 649.26 131.712 651.982 132.558C654.543 133.354 655.873 135.715 657.706 137.459C661.272 140.851 665.579 144.922 670 147C670.9 143.959 670.992 141.169 671 138C674.808 141.749 677.299 147.828 682.961 149.353C687.885 150.679 690.15 144.298 694.385 143.147C697.205 142.381 699.523 144.459 702.039 145.292C705.205 146.339 708.74 146.223 712 147L706 159C705.109 158.512 703.862 157.683 702.855 157.302C696.124 154.757 698.184 161.918 695.977 165.625C694.549 168.023 692.308 169.455 691 172C697.733 167.879 697.479 163.916 700 157C706.385 161.903 712.094 156.498 712.591 149C712.78 146.153 711.512 143.675 710.785 141C708.964 134.301 708.427 129.01 703 124C705.538 121.219 707.88 116.904 711.184 115.028C714.699 113.032 719.326 115.211 722.682 112.972C725.721 110.945 725.396 105.252 726 102C723.458 104.715 724.167 109.604 721.512 111.682C718.901 113.726 715.056 112.654 712.04 113.148C708.034 113.805 703.435 118.967 702.867 123C702.318 126.896 706.322 130.643 707.775 134C709.263 137.436 709.137 141.378 710 145C704.697 144.724 701.437 143.045 698 139C695.866 139.658 694.227 139.952 692 140C689.785 142.95 687.534 145.647 686 149C680.08 146.153 676.295 141.544 673 136C669.186 138.34 668.806 140.806 670 145C666.526 142.456 662.74 139.454 659.63 136.471C657.391 134.324 656.183 131.599 652.957 130.693C649.883 129.829 647.035 131.583 644 131.091C641.524 130.69 639.591 128.738 637 128.808C632.856 128.92 629.394 132.34 625.004 131.087C620.604 129.831 619.778 125.311 616.367 123.032C613.594 121.178 609.081 122.757 606 123C606.711 118.624 610.061 116.772 612 113C605.928 111.398 601.712 109.84 596 107C600.601 100.015 606.265 93.5081 610 86L612 86C613.218 88.1179 613.867 88.8447 616 90C616 85.2287 615.258 79.7605 616.299 75.0895C616.858 72.5756 618.486 70.5505 618.857 67.9606C619.607 62.7113 618.608 57.2783 619.174 52C619.643 47.6151 622.441 42.4951 621.592 38.0934C620.884 34.4224 614.586 29.6867 611 29.1721C603.791 28.1375 597.504 41.0629 589.094 36.8025C583.838 34.1397 584.688 28.5535 581.987 24.3295C580.379 21.8154 577.681 20.8589 575 20L573 25C566.389 21.1533 568.427 19.4837 568.97 13.0031C569.214 10.0934 568.164 7.87878 569 5C566.183 5.92065 563.829 6.65338 562 9z"/>
<path style="fill:#aad5ff; stroke:none;" d="M552 21C567.211 23.3737 555.727 39.7268 553.424 48C552.444 51.5225 550.998 55.358 550.643 59C550.385 61.6357 551.76 64.3693 550.692 66.9097C549.654 69.3813 547.068 71.0479 544.996 72.5748C537.217 78.3062 533.195 78.1682 524 77C522.981 84.5706 521.019 92.8135 518.407 100C517.278 103.108 515.037 107.425 518.515 109.998C520.887 111.754 523.548 110.078 526 109.49C529.091 108.748 532.693 109.668 535.625 108.401C538.065 107.347 539.395 104.775 542.043 103.998C548.619 102.067 555.994 108.838 560.039 113.005C562.134 115.162 566.793 118.46 566.793 121.811C566.793 124.215 563.924 125.314 561.995 125.721C558.715 126.415 555.278 125.584 552 126.302C548.771 127.011 545.239 128.982 542.286 130.479C538.698 132.297 532.782 134.888 530.403 138.147C528.335 140.98 528.223 144.74 525.683 147.239C521.506 151.349 515.63 151.288 511.325 154.6C507.434 157.593 505.582 162.326 500.999 164.682C494.289 168.133 486.814 160.803 481.058 163.816C476.561 166.17 475.355 172.706 477.282 177C478.388 179.467 481.101 182.052 480.462 184.985C479.649 188.72 474.977 190.717 472.289 192.9C468.287 196.152 466.018 201.188 461.826 204.16C451.293 211.63 438.9 209.979 427 212.379C420.14 213.762 412.137 217.564 406 220.9C403.236 222.403 400.257 225.342 397.043 225.724C394.044 226.08 392.463 223.047 389.791 222.314C384.997 220.998 379.912 222.159 375 220.652C371.703 219.64 368.018 218.766 365 217.07C362.228 215.512 360.097 213.21 357 212.228C347.315 209.157 336.843 210.926 327 210.995C319.647 211.047 312.315 209.577 305 209C305.159 212.102 306.176 214.944 306.455 218C307.085 224.891 305.486 228.828 309.864 234.996C311.391 237.147 313.26 240.433 316.093 240.979C319.03 241.545 321.486 238.967 324 237.934C328.278 236.175 336.245 236.087 339.797 239.434C344.676 244.03 337.564 248.622 334 251C335.755 257.12 340.922 259.671 347 260C347.772 270.235 360.839 272.335 369 268.566C371.995 267.183 374.064 264.474 377 263.027C379.49 261.8 383.223 261.533 385.671 263.028C399.159 271.267 373.326 283.717 388.019 292.131C390.717 293.676 393.099 293.472 396 292.698C398.39 292.059 400.874 291.326 402.981 289.995C411.037 284.905 408.381 274.406 413.089 267.184C416.47 261.998 424.514 259.451 424.933 268C425.132 272.057 421.731 275.964 421 280C426.107 281.662 430.405 284.578 435.285 286.415C438.496 287.623 442.598 287.368 446 288C450.305 281.672 455.943 275.868 460.002 269.545C462.31 265.951 462.146 261.48 466.301 259.028C468.317 257.838 470.797 258.072 473 257.491C476.822 256.482 480.521 254.404 483.816 252.263C487.999 249.544 489.745 244.514 494.04 241.984C498.531 239.338 507.006 239.354 510.353 235.347C512.838 232.374 509.581 228.221 509.253 225C508.499 217.593 513.491 208.844 521 208C521.021 210.85 521.19 213.271 522 216C529.736 213.004 535.167 207.28 544 207C543.45 202.016 547.717 193.773 553.985 196.817C560.307 199.888 559.852 207.422 564.433 211.397C566.824 213.472 571.01 213.443 574 214C577.16 207.319 573.15 200.86 576 194C579.012 196.473 581.605 198.921 584 202L586 202C590.989 193.057 601.506 185.88 610.375 180.969C616.112 177.793 620.963 177.258 623 170C618.309 167.123 616.151 158.789 613 154C610.465 154.978 606.034 158.835 603.313 157.808C601.256 157.031 600.581 153.798 599.849 152C598.276 148.141 598.037 143.863 596.441 140.09C594.812 136.239 592.335 134.411 592 130C599.122 130.305 601.142 130.658 606 125C603.83 119.747 604.82 117.355 610 115C605.659 113.247 597.93 112.491 596.342 106.907C595.607 104.324 597.912 101.934 599.26 100C602.796 94.9286 606.802 89.799 609 84L614 86C614 82.4246 613.569 78.5157 614.299 75C614.875 72.2234 616.468 69.8389 616.857 67C617.579 61.7176 616.543 56.296 617.3 51C617.817 47.3823 619.599 43.6828 619.552 40.0146C619.5 36.0701 614.846 31.7258 611 31.1721C608.143 30.7607 606.138 33.1234 604 34.5872C599.755 37.4937 592.931 41.2087 588.044 38.1412C581.519 34.0463 583.116 25.3752 576 22C572.794 25.8908 567.109 26.4485 565.982 19.9846C565.458 16.9767 568.015 14.1782 567.073 11.1528C565.116 4.86786 556.918 12.6146 555.059 15.0887C553.662 16.9468 552.814 18.8551 552 21z"/>
<path style="fill:#d2e9ff; stroke:none;" d="M554 21C555.248 21.6848 555.548 21.7488 557 22C555.752 21.3152 555.452 21.2512 554 21z"/>
<path style="fill:#d1e8fe; stroke:none;" d="M590 39C591.506 39.6831 592.315 39.8259 594 40C592.494 39.317 591.685 39.1741 590 39z"/>
<path style="fill:#bfdfff; stroke:none;" d="M617 57L617 70C618.591 66.2087 618.591 60.7913 617 57z"/>
<path style="fill:#cee6ff; stroke:none;" d="M619 63L619 70C620.06 67.4657 620.06 65.5343 619 63z"/>
<path style="fill:#bfdfff; stroke:none;" d="M725 70L725 86C726.812 81.6811 726.812 74.3188 725 70M614 72L614 87C615.74 82.8524 615.74 76.1476 614 72z"/>
<path style="fill:#aad5ff; stroke:none;" d="M175 119C167.344 119.668 162.587 120.807 155 118.039C151.895 116.905 147.681 113.47 144.39 115.708C139.663 118.924 135.343 130.598 133.954 136C133.318 138.469 134.289 142.397 131.723 143.928C128.492 145.856 124.972 142.438 122 141.563C117.271 140.172 104.903 140.892 102 145C111.167 148.37 106 167.029 106 175C102.305 175.881 99.3802 177.44 97.652 181.04C96.0995 184.275 96.3283 188.589 92.7724 190.486C87.2511 193.431 79.8511 192.854 74 195.14C70.6271 196.458 67.7202 199.544 64 199.807C59.9292 200.095 56.1256 196.91 52.0008 197.893C46.5512 199.191 37.6587 213.052 34 201C27.4693 201 20.1228 200.851 14.1435 203.97C7.38236 207.496 3.27261 218.935 5 226C13.3714 226.796 15.0456 233.793 14.9992 241C14.9831 243.512 15.2193 246.588 13.3966 248.596C11.6288 250.545 8.41057 250.538 6 251L6 253C10.8407 255.591 17.2683 259.469 20.1682 264.325C22.1381 267.623 19.4806 271.365 20.909 274.857C21.9866 277.491 24.8127 278.596 27.0046 280.125C32.597 284.025 36.9498 288.361 44 289L43 301C47.4873 301.037 52.6675 302.658 57 301.297C61.7795 299.796 65.6892 295.034 71 295.484C77.82 296.062 83.5983 301.863 90 302.356C93.4267 302.621 95.9143 299.873 99 298.932C101.757 298.092 105.237 298.702 108 299.329C114.026 300.698 118.39 306.148 125 305.581C128.092 305.316 130.896 303.717 134 303.495C137.41 303.252 140.602 304.321 144 303.361C147.582 302.349 150.485 299.842 154 298.699C159.069 297.051 166.659 296.085 172 296.019C178.498 295.937 182.998 299.506 189 301.211C191.952 302.051 195.071 301.784 198 302.688C200.713 303.524 203.099 305.268 206 305.475C209.282 305.71 212.715 304.286 216 304L216 302C205.714 298.719 220.165 293.453 218.578 288.085C216.862 282.282 208.305 281.282 209.167 274.035C209.679 269.733 214.117 266.685 218 265.571C221.859 264.464 226.069 264.489 230 263.525C238.343 261.48 247.453 258.543 256 258C255.869 251.662 251.945 239.667 255.757 234.213C257.487 231.738 260.586 230.454 263 228.78C267.732 225.499 271.596 221.998 277 219.801C281.435 217.998 287.855 216.774 289.811 211.895C294.218 200.9 283.393 189.56 281 179C272.957 176.633 267.652 169.754 260 166.843C256.303 165.437 251.884 165.816 248 165.065C244.088 164.308 240.631 162.578 237 161C234.564 159.942 231.537 158.943 230.004 156.61C226.885 151.861 232.288 142.206 233.215 137C234.506 129.74 228.353 116.382 221.957 112.653C218.875 110.856 215.441 111.01 212 111C210.236 102.258 202.048 98.7837 203 89C200.162 88.9417 195.873 87.715 193.299 89.1173C190.234 90.7867 189.367 95.2348 186.556 97.3973C184.185 99.2217 180.768 98.6815 178.589 100.742C174.542 104.569 175.003 113.912 175 119z"/>
<path style="fill:#d1e8fe; stroke:none;" d="M181 98C183.052 98.8743 184.747 98.9528 187 99C184.948 98.1257 183.253 98.0472 181 98M204.333 98.6667C204.278 98.7224 204.222 99.7776 204.667 99.3333C204.722 99.2779 204.778 98.2223 204.333 98.6667M725.333 100.667C725.278 100.722 725.222 101.778 725.667 101.333C725.722 101.278 725.778 100.222 725.333 100.667z"/>
<path style="fill:#d2e9ff; stroke:none;" d="M542 103C543.506 103.683 544.315 103.826 546 104C544.494 103.317 543.685 103.174 542 103M709 112C712.959 113.661 717.737 113 722 113C718.041 111.339 713.263 112 709 112z"/>
<path style="fill:#aad5ff; stroke:none;" d="M604 133C600.542 132.717 597.336 131.938 594 131C593.933 135.245 596.899 136.467 598.398 140.17C599.384 142.605 599.072 145.466 599.789 148C600.759 151.433 602.372 154.463 603 158C605.469 156.873 608.271 154.095 610.961 153.778C616.661 153.104 620.685 163.66 621 168C627.715 167.663 632.696 173.2 639 171C643.533 181.723 654.406 191.073 656 203C663.536 200.254 660.597 191.45 666.419 187.827C668.732 186.388 671.568 188.292 674 188.441C677.566 188.66 680.935 187.644 684 186C683.134 184.313 681.549 182.123 681.867 180.104C682.323 177.216 685.664 176.552 687.675 175.081C690.399 173.089 694.17 169.261 695.976 166.406C697.558 163.906 696.178 158.648 699.432 157.326C701.385 156.533 704.22 158.323 706 159C708.957 154.745 710.757 151.227 711 146C708.32 145.992 705.582 146.131 703 145.281C700.004 144.294 697.345 142.075 694.001 142.916C690.011 143.919 687.376 150.254 682.961 148.863C677.448 147.127 675.455 140.906 671 138C670.974 141.122 670.724 143.961 670 147C666.386 144.446 661.798 141.494 658.669 138.417C656.394 136.18 655.429 132.806 651.982 131.952C648.929 131.196 646.198 133.591 643.17 133.087C640.497 132.643 638.916 130.389 635.985 130.831C632.18 131.405 629.072 134.003 625.001 132.856C618.058 130.899 615.724 120.135 607.148 125.603C605.908 126.394 605.21 127.698 604.603 128.975C604.014 130.216 604.1 131.68 604 133z"/>
<path style="fill:#cce7ff; stroke:none;" d="M602 129L601 132C602.766 131.021 602.955 130.778 602 129z"/>
<path style="fill:#d1e8fe; stroke:none;" d="M629 132C630.506 132.683 631.315 132.826 633 133C631.494 132.317 630.685 132.174 629 132M658 139C659.506 139.683 660.315 139.826 662 140C660.494 139.317 659.685 139.174 658 139z"/>
<path style="fill:#dbedfe; stroke:none;" d="M119 140C120.506 140.683 121.315 140.826 123 141C121.494 140.317 120.685 140.174 119 140z"/>
<path style="fill:#d1e8fe; stroke:none;" d="M107 141C109.89 142.213 112.874 141.998 116 142C113.11 140.787 110.126 141.002 107 141z"/>
<path style="fill:#cde8ff; stroke:none;" d="M709 143C707.199 143.562 705.878 143.824 704 144C705.587 144.914 710.184 145.867 709 143z"/>
<path style="fill:#d1e8fe; stroke:none;" d="M127 144C128.248 144.685 128.548 144.749 130 145C128.752 144.315 128.452 144.251 127 144M711.333 147.667C711.278 147.722 711.222 148.778 711.667 148.333C711.722 148.278 711.778 147.222 711.333 147.667z"/>
<path style="fill:#bfdfff; stroke:none;" d="M106 149L106 162C107.591 158.209 107.591 152.791 106 149z"/>
<path style="fill:#cee6ff; stroke:none;" d="M620 162L620 167C620.83 164.97 620.83 164.03 620 162z"/>
<path style="fill:#d1e8fe; stroke:none;" d="M487 164C488.248 164.685 488.548 164.749 490 165C488.752 164.315 488.452 164.251 487 164z"/>
<path style="fill:#dbedfe; stroke:none;" d="M250 165C251.769 165.779 253.036 165.912 255 166C253.231 165.221 251.964 165.088 250 165z"/>
<path style="fill:#aad5ff; stroke:none;" d="M625 169C622.865 176.606 616.653 179.529 610.286 182.954C600.686 188.119 590.019 194.381 586 205L584 205C582.341 200.731 580.046 198.145 576 196C575.208 200.757 577.345 205.226 576.775 210C576.347 213.593 573.068 218.118 575.068 221.656C577.324 225.646 583.211 226.686 586 231C594.533 228.038 595.164 216.958 603.043 214.037C610.561 211.25 615.256 218.589 612.351 225C610.481 229.127 607.871 232.495 607 237C610.944 240.331 610.317 242.697 608 247C614.896 244.636 617.372 238.118 622.439 233.39C627.688 228.492 634.941 226.973 640.674 223.027C644.369 220.484 646.569 215.518 649.235 212C651.433 209.101 654.711 205.903 654.711 202C654.711 198.02 651.347 195.208 649.508 192C645.963 185.813 643.263 179.935 639 174L634 176C631.826 171.942 629.341 170.365 625 169z"/>
<path style="fill:#d1e8fe; stroke:none;" d="M680.333 179.667C680.278 179.722 680.222 180.778 680.667 180.333C680.722 180.278 680.778 179.222 680.333 179.667z"/>
<path style="fill:#d6eafe; stroke:none;" d="M675 188C676.506 188.683 677.315 188.826 679 189C677.494 188.317 676.685 188.174 675 188z"/>
<path style="fill:#aad5ff; stroke:none;" d="M519 209C512.177 211.584 508.522 222.374 511.548 228.999C513.254 232.735 516.946 235.327 518.401 239.09C519.695 242.432 520.816 248.414 520.837 251.999C520.877 258.664 512.891 261.205 512.025 268.001C511.307 273.631 517.769 277.567 518.775 283C519.87 288.921 514.552 293.501 514.711 298.981C514.813 302.485 518.104 303.629 521.001 304.227C527.273 305.522 532.833 303.923 539 304C536.633 294.157 544.309 282.883 552.001 276.975C556.654 273.4 561.127 271.641 565 267L562 261C550.824 263.567 549 256.363 549 247C543.289 249.485 538.009 248.888 532 250C530.688 242.906 533.02 240.221 535.931 234C537.484 230.68 538.253 226.629 542.019 224.994C545.072 223.669 550.261 226.106 552.772 227.923C559.585 232.851 559.24 243.411 566.455 248.418C569.692 250.665 574.048 248.279 576.701 246.045C578.353 244.653 579.177 242.824 580.219 240.985C581.832 238.137 585.095 234.595 584.124 231.058C582.151 223.874 571.947 225.528 573 216C569.312 215.108 565.604 215.019 563.059 211.852C559.647 207.606 559.087 199.366 552.961 197.712C550.559 197.064 548.071 198.353 546.603 200.228C544.941 202.351 545.316 205.48 543.397 207.397C541.087 209.707 536.008 210.023 533 211.194C528.601 212.905 521.072 220.426 519.148 212.12C518.936 211.204 519.029 209.876 519 209z"/>
<path style="fill:#f9fcfe; stroke:none;" d="M292 204C290.96 207.325 290.327 211.902 287.683 214.351C283.888 217.866 277.595 218.886 273 221.055C268.887 222.996 265.701 226.205 262.001 228.78C259.682 230.394 256.648 231.665 255.183 234.213C253.608 236.953 254.555 240.071 254.83 243C255.295 247.955 255.787 253.032 256 258C245.645 258.299 235.19 262.534 225 264.384C220.648 265.174 215.618 264.785 212.318 268.279C208.491 272.329 209.661 279.06 213.147 282.829C214.809 284.627 218.513 286.587 218.387 289.421C218.205 293.522 212.127 294.032 211.662 298.049C211.321 300.998 213.745 301.608 216 302L216 304C212.722 304.149 209.243 305.422 206 305.118C203.153 304.851 200.747 303.072 198 302.414C195.362 301.782 192.63 301.959 190 301.211C185.514 299.936 181.656 296.923 177 296.213C169.998 295.145 159.691 296.524 153 298.699C149.488 299.84 146.599 302.401 143 303.347C136.752 304.989 131.382 303.175 125 306C128.112 306.921 130.819 305.564 134 305.184C138.03 304.703 142.095 305.42 146 304.031C149.802 302.678 152.952 299.914 157 299.225C162.072 298.361 168.91 296.679 174 297.144C178.696 297.573 182.638 300.533 187 302.035C190.836 303.356 195.049 303.059 199 304C198.174 305.478 196.72 307.242 196.667 309C196.587 311.629 198.342 313.175 197.583 316C196.818 318.85 196.608 322.255 195.667 324.972C194.563 328.159 192.035 329.279 192 333C191.956 337.748 194.652 341.918 196.778 346C198.561 349.424 200.598 354.899 203.472 357.5C206.67 360.393 213.932 360.15 218 361.722C222.045 363.286 224.78 366.812 229 368.111C238.348 370.989 248.754 369.807 258 372.889C261.566 374.078 265.387 377.129 267.75 380.028C269.87 382.628 269.532 385.261 273 386C271.047 382.584 269.922 379.051 266.941 376.304C257.236 367.36 241.837 370.18 230 366.49C225.816 365.186 223.031 361.499 219 359.878C214.784 358.183 209.182 358.65 205.39 356.012C200.964 352.932 198.574 344.707 196.248 340C195.219 337.918 193.663 335.496 193.704 333.09C193.751 330.269 196.269 327.744 196.957 324.985C197.847 321.416 199.624 317.652 199.96 314C200.132 312.129 199.019 309.264 200.613 307.788C202.396 306.136 205.841 307.513 208 307.299C211.441 306.957 214.876 305.385 218 304C217.106 302.589 214.757 300.535 214.586 298.843C214.356 296.564 217.161 295.073 218.472 293.627C220.292 291.619 221.19 289.53 222 287C215.807 283.126 205.234 273.946 216.019 268.175C221.432 265.279 229.961 264.786 236 263.866C246.801 262.219 255.017 258.945 266 261.92C273.225 263.876 279.776 269.676 287 270.771C291.748 271.49 294.691 268.573 299 267.549C302.001 266.835 304.979 268.083 308 267.738C310.363 267.467 312.59 266.013 315 266.197C318.698 266.478 321.731 269.785 325 271.251C327.979 272.587 331.944 270.992 334.502 272.788C336.746 274.364 337.486 277.654 339.394 279.621C342.324 282.642 346.561 285.11 350 287.542C353.035 289.689 356.446 289.152 359.334 290.924C362.558 292.901 365.545 297.756 367.352 301C369.802 305.398 374.153 315.022 372.254 319.961C370.179 325.358 364.936 326.466 366 333C368.122 328.974 372.483 325.212 373.697 320.961C377.095 309.061 366.428 295.949 360 287C349.677 289.523 339.365 277.658 336 269C333.078 269.421 329.929 270.578 327 269.741C322.778 268.534 319.47 264.238 315 263.9C312.24 263.691 309.729 265.473 307 265.698C303.935 265.95 301.047 264.8 298 265.714C294.927 266.635 292.315 269.233 289 269.332C283.175 269.506 277.576 263.268 272 261.694C268.012 260.568 261.6 260.648 258.603 257.436C256.171 254.828 257.139 250.247 256.83 247C256.495 243.475 255.282 239.544 256.742 236.108C258.052 233.025 261.435 231.731 264.001 229.897C271.794 224.322 279.708 221.501 287.941 216.876C293.098 213.979 291.469 208.042 298 207L292 204z"/>
<path style="fill:#d1e8fe; stroke:none;" d="M561 204L561 208C561.71 206.24 561.71 205.759 561 204M10 206L10 209C10.6961 207.446 10.6961 207.554 10 206z"/>
<path style="fill:#aad5ff; stroke:none;" d="M336 269C338.437 277.904 349.904 290.939 360 287C364.576 296.188 372.883 304.216 374.005 315C374.606 320.777 371.581 322.889 368.594 327.17C366.317 330.433 363.964 334.784 362.022 338.285C360.436 341.147 361.219 344.871 357.852 346.627C354.848 348.194 351.744 346.207 349 345C350.58 349.883 358.225 353.676 363 355C364.251 351.003 371.22 345.529 375.567 348.708C378.005 350.49 378.312 354.314 380.314 356.575C384.112 360.863 388.617 360.787 392.683 363.769C394.937 365.422 394.716 368.513 396.599 370.411C399.279 373.113 404.484 372.927 408 373C409.149 369.201 413.191 368.32 414.292 364.858C415.017 362.581 413.756 360.094 413 358C416.054 356.886 418.748 356.167 422 356C421.539 352.569 422.788 349.471 422.482 346.17C422.098 342.03 418.296 333.797 425.147 331.732C428.556 330.705 434.241 332.987 438 333C438.378 330.629 438.692 328.678 441.148 327.601C443.443 326.595 447.169 327.557 448.297 324.682C449.222 322.324 450.168 313.504 448.953 311.329C447.406 308.559 443.681 307.121 441 305.756C435.398 302.903 429.988 299.965 424 298C421.498 304.68 420.716 311.489 428 315C427.094 319.138 426.232 321.719 422 323L422 329L412 328C411.232 323.46 407.186 322.714 405.734 318.79C404.748 316.127 405.098 312.802 404.401 310C403.202 305.179 400.041 300.669 396.385 297.317C391.992 293.29 383.889 293.583 381.623 286.96C379.459 280.638 395.154 269.614 384.887 264.514C376.702 260.448 372.974 269.355 366 271.272C358.387 273.366 351.585 268.862 345 266L346 262C339.76 260.758 334.916 256.575 332 251C334.813 249.56 343.211 244.85 339.353 240.738C336.355 237.544 326.653 238.484 323 239.929C320.726 240.829 318.632 242.76 316.015 242.169C313.013 241.491 310.985 238.336 309.348 235.996C303.774 228.029 304.079 217.565 304 208C301.126 207.877 296.079 206.204 293.603 208.042C290.429 210.399 291.225 214.601 286.981 216.876C278.999 221.154 271.36 223.65 264.001 229.157C261.618 230.939 258.039 232.384 256.742 235.224C254.978 239.088 256.45 244.006 256.83 248C257.1 250.833 256.233 255.007 258.028 257.436C260.64 260.971 268.127 260.728 272 261.985C277.454 263.756 282.241 269.072 288 269.62C292.186 270.019 295.184 266.765 299 265.789C301.961 265.031 304.996 266.134 308 265.773C310.337 265.492 312.612 264.225 315 264.476C319.462 264.945 322.696 269.15 327 270.208C329.986 270.941 333.106 269.66 336 269z"/>
<path style="fill:#d2e9ff; stroke:none;" d="M537 207C539.052 207.874 540.747 207.953 543 208C540.948 207.126 539.253 207.047 537 207z"/>
<path style="fill:#d1e8fe; stroke:none;" d="M309 209C311.613 210.098 314.165 209.993 317 210C314.387 208.902 311.836 209.007 309 209M319 210C321.052 210.874 322.747 210.953 325 211C322.948 210.126 321.253 210.047 319 210M342 210C343.506 210.683 344.315 210.826 346 211C344.494 210.317 343.685 210.174 342 210z"/>
<path style="fill:#cee6ff; stroke:none;" d="M519 210L519 216C519.951 213.715 519.951 212.285 519 210z"/>
<path style="fill:#d7eafe; stroke:none;" d="M428 211C430.613 212.098 433.165 211.993 436 212C433.387 210.902 430.836 211.007 428 211z"/>
<path style="fill:#d2e9ff; stroke:none;" d="M565 213C567.331 213.985 569.457 213.981 572 214C569.668 213.015 567.543 213.019 565 213z"/>
<path style="fill:#aad5ff; stroke:none;" d="M549 246C548.891 243.558 548.572 241.377 548 239L554 237L554 229C550.565 228.011 545.674 224.52 542.109 226.133C538.661 227.692 534.704 237.462 533.348 241.014C532.766 242.539 532.05 244.87 533.118 246.358C535.854 250.171 545.644 247.241 549 246z"/>
<path style="fill:#dbedfe; stroke:none;" d="M578 226C579.506 226.683 580.315 226.826 582 227C580.494 226.317 579.685 226.174 578 226z"/>
<path style="fill:#c8e4ff; stroke:none;" d="M554 232L554 236C554.71 234.24 554.71 233.76 554 232z"/>
<path style="fill:#aad5ff; stroke:none;" d="M475 336C479.007 334.719 483.278 333.815 487 331.812C491.467 329.409 495.309 325.788 500 323.804C505.044 321.671 511.988 321.951 514.397 315.91C516.838 309.787 512.531 303.828 513.508 298C514.338 293.047 518.033 288.237 517.481 283C516.906 277.557 511.046 274.253 510.643 269C510.157 262.676 516.085 260.428 518.482 255.675C520.519 251.637 518.47 247.933 517.465 244C516.885 241.726 517.084 238.42 514.682 237.133C511.971 235.68 508.548 238.105 506 238.92C501.908 240.228 496.783 240.851 493.325 243.588C490.547 245.787 489.066 249.249 486.535 251.701C484.769 253.413 482.144 254.291 480.688 256.299C478.063 259.916 477.802 266.711 476.517 271C475.711 273.691 473.808 276.147 473.607 279C473.355 282.574 476.155 285.452 476.077 289C475.982 293.346 472.406 296.49 472.723 301C473.15 307.087 476.021 312.903 476.352 319C476.681 325.071 473.519 329.707 475 336M556 236C554.252 241.681 550.933 246.99 551.005 252.996C551.029 254.962 550.888 257.461 552.603 258.821C554.743 260.517 558.457 259.993 561 260C560.372 255.489 563.142 252.125 562.849 248.039C562.536 243.69 558.164 241.048 558 236L556 236z"/>
<path style="fill:#d2e9ff; stroke:none;" d="M323 237C327.471 238.876 333.183 238 338 238C333.529 236.124 327.817 237 323 237z"/>
<path style="fill:#d1e8fe; stroke:none;" d="M517 238L517 246C518.161 243.23 518.161 240.77 517 238z"/>
<path style="fill:#aad5ff; stroke:none;" d="M551 239C550.697 241.682 550.793 242.428 553 244L553 239L551 239z"/>
<path style="fill:#d1e8fe; stroke:none;" d="M579 241L579 245C579.71 243.24 579.71 242.76 579 241z"/>
<path style="fill:#e5f2fe; stroke:none;" d="M550 246C548.967 250.338 549 254.561 549 259C551.285 255.185 551.726 250.112 550 246z"/>
<path style="fill:#d7ebfe; stroke:none;" d="M536 247C537.506 247.683 538.315 247.826 540 248C538.494 247.317 537.685 247.174 536 247z"/>
<path style="fill:#d4eaff; stroke:none;" d="M332.333 251.667C332.278 251.722 332.222 252.778 332.667 252.333C332.722 252.278 332.778 251.222 332.333 251.667z"/>
<path style="fill:#e5f2fe; stroke:none;" d="M465 258C470.286 260.809 474.436 259.678 478 255C473.438 256.783 469.958 257.982 465 258z"/>
<path style="fill:#aad5ff; stroke:none;" d="M440 329L440 334C434.19 334.73 429.701 333.362 424 333C423.405 335.406 421.574 338.334 421.882 340.83C422.119 342.748 423.772 344.127 423.922 346.09C424.214 349.912 422.715 353.923 423 358C420.15 358.021 417.729 358.19 415 359C416.017 362.159 416.248 364.697 416 368C418.124 368.899 418.101 368.876 419 371C422.41 370.93 426.628 369.614 429.91 370.624C434.553 372.054 438.059 376.141 443 377.323C446.319 378.117 449.653 376.954 453 377.8C456.094 378.582 461.712 383.312 464.767 382.253C467.953 381.149 465.618 376.354 466.153 374.043C466.845 371.051 469.635 369.549 472 368C469.228 365.291 466.303 363.177 464 360C468.699 358.881 473.2 359.072 477.995 359.111C480.091 359.128 482.482 359.156 483.342 356.812C484.471 353.737 481.891 350.406 480.329 348C477.203 343.187 472.97 338.008 472.676 332C472.458 327.548 475.02 323.497 474.789 319C474.464 312.667 471.108 306.315 471.387 300C471.573 295.783 474.718 292.283 474.602 288C474.516 284.835 472.217 282.162 472.336 279C472.612 271.612 477.819 264.731 478 257C474.461 258.384 468.219 259.192 465.433 261.603C463.258 263.486 463.199 266.504 461.851 268.871C460.298 271.598 457.497 273.566 455.579 276.054C452.787 279.679 450.53 284.747 446.816 287.512C441.608 291.389 430.513 286.107 432.153 296.895C433.376 304.943 447.822 304.471 450.84 312.043C451.818 314.498 450.295 316.634 449.863 319C449.507 320.955 450.171 322.972 449.748 324.891C448.777 329.285 443.504 328.968 440 329z"/>
<path style="fill:#cee6ff; stroke:none;" d="M479 259L479 263C479.71 261.24 479.71 260.76 479 259z"/>
<path style="fill:#aad5ff; stroke:none;" d="M222 287C220.515 290.113 213.541 295.8 213.905 298.843C214.133 300.753 216.79 302.681 218 304C214.472 305.148 210.756 306.897 207 306.969C204.797 307.011 201.483 305.674 199.743 307.64C198.17 309.416 199.849 312.217 199.663 314.285C199.367 317.581 198.631 322.767 197.402 325.816C196.448 328.182 193.853 329.581 193.422 332.184C193.032 334.539 194.296 336.944 195.262 339C197.566 343.902 200.253 352.673 204.637 356.012C208.212 358.734 213.916 358.236 218 359.878C221.713 361.371 224.31 364.639 228 366.143C235.163 369.063 244.401 368.965 252 370.389C260.292 371.943 269.547 375.587 271 385L286 388C288.121 384.606 291.063 381.585 292.84 378.001C295.186 373.27 296.072 366.957 301.108 364.013C308.283 359.818 315.607 362.252 323 363.238C325.489 363.57 328.441 362.416 330.791 363.352C333.546 364.45 335.009 367.906 337.104 369.852C339.811 372.366 342.45 372.885 346 373C347.214 362.105 356.581 364.355 365 364C366.612 351.828 347.117 354.851 348 343C350.338 343.96 354.082 346.869 356.682 345.745C359.262 344.629 359.212 340.235 360.583 338.09C365.04 331.115 374.374 322.025 372.223 313C370.495 305.748 366.704 296.17 360.701 291.41C358.484 289.653 355.992 290.327 353.576 289.247C349.604 287.471 345.538 283.72 342.043 281.1C338.932 278.767 337.642 273.95 334.502 272.12C332.324 270.852 329.389 272.103 327 271.451C322.997 270.358 320.06 266.683 316 265.835C313.104 265.23 310.755 267.055 308 267.496C304.994 267.978 302.016 266.763 299 267.292C295.125 267.973 292.119 271.108 288 270.721C283.679 270.315 279.82 266.983 276 265.171C268.57 261.646 258.223 258.871 250 260.514C242.001 262.112 233.967 263.831 226 265.576C222.523 266.337 218.201 266.413 215.059 268.175C204.907 273.867 215.548 284.268 222 287z"/>
<path style="fill:#d1e8fe; stroke:none;" d="M258.667 260.333C258.222 260.778 259.278 260.722 259.333 260.667C259.778 260.222 258.722 260.278 258.667 260.333z"/>
<path style="fill:#d2e9ff; stroke:none;" d="M343 260C344.506 260.683 345.315 260.826 347 261C345.494 260.317 344.685 260.174 343 260z"/>
<path style="fill:#c7e3ff; stroke:none;" d="M556 260C557.506 260.683 558.315 260.826 560 261C558.494 260.317 557.685 260.174 556 260z"/>
<path style="fill:#aad5ff; stroke:none;" d="M396 294C398.241 298.343 401.934 301.658 404.155 306C408.529 314.55 407.182 326.579 420 327L420 322L425 322C425.152 320.38 425.516 318.589 425.112 316.975C424.037 312.684 414.418 299.576 425.034 297.719C426.617 297.442 428.426 297.839 430 298C430.096 294.666 432.897 288.525 430.954 285.699C428.602 282.279 422.077 283.154 420.712 278.775C419.738 275.649 422.689 272.901 423.267 270C423.8 267.324 422.712 264.542 422 262C410.959 266.292 413.75 276.029 409.486 284.83C407.02 289.92 401.198 292.75 396 294z"/>
<path style="fill:#d1e8fe; stroke:none;" d="M21 265L21 268C21.6961 266.446 21.6961 266.554 21 265z"/>
<path style="fill:#aad5ff; stroke:none;" d="M566 267C561.754 272.511 556.077 274.387 551.055 278.885C546.525 282.942 540.362 291.939 539.218 298C538.684 300.825 539.855 304.127 540 307L549 305C544.875 310.925 537.976 315.956 536 323C541.025 326.084 546.602 329.903 552.791 327.262C555.058 326.294 556.5 323.446 559.104 323.302C561.957 323.144 564.262 325.796 567 326.316C571.866 327.242 576.833 325.089 582 326C587.043 315.383 602.869 307.404 600 294C607.658 291.922 611.045 286.102 617 281.221C622.553 276.669 626.904 277.124 627 269C622.797 269.012 618.114 270.259 614 269.571C610.367 268.964 606.896 266.231 603.089 267.619C596.836 269.898 595.355 279.254 588.911 281.129C586.42 281.853 583.441 280.494 581 280C580.94 277.103 581.182 273.047 579.062 270.742C576.49 267.947 569.585 268.519 566 267z"/>
<path style="fill:#cde7ff; stroke:none;" d="M573 268C574.506 268.683 575.315 268.826 577 269C575.494 268.317 574.685 268.174 573 268z"/>
<path style="fill:#c8e4ff; stroke:none;" d="M614 269C615.769 269.779 617.036 269.912 619 270C617.231 269.221 615.964 269.088 614 269z"/>
<path style="fill:#bfdfff; stroke:none;" d="M209 270L209 280C210.346 276.793 210.346 273.207 209 270z"/>
<path style="fill:#d7eafe; stroke:none;" d="M627 271L627 275C627.71 273.24 627.71 272.759 627 271z"/>
<path style="fill:#d2e9ff; stroke:none;" d="M22 278C23.506 278.683 24.3148 278.826 26 279C24.4939 278.317 23.6853 278.174 22 278z"/>
<path style="fill:#c8e4ff; stroke:none;" d="M382 284L382 288C382.71 286.24 382.71 285.759 382 284z"/>
<path style="fill:#cee6ff; stroke:none;" d="M437 288C438.769 288.779 440.036 288.912 442 289C440.231 288.221 438.964 288.088 437 288z"/>
<path style="fill:#c8e4ff; stroke:none;" d="M43 291L43 296C43.8299 293.97 43.8299 293.03 43 291z"/>
<path style="fill:#f5fafe; stroke:none;" d="M48 302C57.5458 306.116 61.4898 297.139 70 296.994C77.0027 296.875 82.5847 302.708 89 304.013C94.2299 305.077 98.4524 299.672 104 300.056C111.222 300.554 115.821 306.349 123 307C117.336 301.979 107.846 297.323 100 298.367C96.4591 298.838 93.6489 302.187 90 301.879C82.8818 301.278 76.8057 294.386 69 295.268C64.501 295.776 61.0676 299.276 57 300.925C54.1038 302.1 51.066 301.991 48 302z"/>
<path style="fill:#aad5ff; stroke:none;" d="M45 303C45.9254 306.24 46.988 307.495 50 309C49.0188 314.285 48.0792 320.679 49.3133 326C50.0502 329.177 52.5859 331.666 52.794 334.996C52.9622 337.69 51.6036 340.32 48.9414 341.2C45.5095 342.334 41.4336 339.489 38 339C39.0569 346.189 39.9239 351.69 39 359C43.0438 359.653 44.4648 361.795 47.3248 364.541C49.8837 366.997 53.1339 368.763 55.4514 371.464C57.4058 373.742 58.4304 376.659 60.3434 378.995C64.0486 383.52 67.8223 385.946 72 381C78.1685 386.682 84.8811 391.858 90.8673 397.729C93.1845 400.002 94.5894 404.358 97.392 405.918C99.6 407.148 101.936 405.852 104 405C106.011 413.414 108.382 418.01 118 419C119.142 426.023 126.065 426.797 128 433C137.662 433 145.457 436.999 155 437C158.35 437 164.694 435.829 167.218 438.603C169.302 440.894 168.112 445.211 168 448C174.539 445.086 180.561 436.163 188 435.923C191.812 435.8 194.719 438.247 198 439.726C200.864 441.017 203.983 440.466 206.816 441.599C208.935 442.446 210.192 444.583 212.325 445.362C215.081 446.369 220.15 445.384 222.91 444.574C226.759 443.444 229.773 439.916 233.001 437.67C236.747 435.062 241.009 434.06 245 431.96C248.116 430.32 251.387 427.566 254.83 426.716C258.567 425.793 261.924 429.348 266 428.594C271.374 427.6 274.303 424.507 280 426L278 432L283 432C282.396 435.175 281.079 437.964 280 441C283.544 441.967 287.257 443.949 291 443.764C293.407 443.645 295.589 442.133 298 442.268C302.297 442.508 306.424 444.767 311 445C311.002 442.097 310.669 438.872 311.938 436.17C313.32 433.225 315.941 431.302 316.697 427.996C318.814 418.728 316.347 408.905 314.488 400C313.929 397.323 314.803 394.648 314.237 392C312.839 385.46 307.293 378.279 301.997 374.459C292.208 367.399 293.197 389.281 281.985 388.137C278.946 387.827 273.896 387.538 271.559 385.397C266.86 381.092 265.858 375.508 259 373.028C250.945 370.115 241.395 370.417 233 368.735C227.826 367.699 224.587 364.512 220 362.289C215.392 360.055 209.531 360.633 205.213 357.86C201.478 355.462 199.356 349.786 197.309 346C195.284 342.257 192.023 337.442 192.252 333.015C192.414 329.894 194.888 327.811 195.702 324.91C197.666 317.909 196.86 310.705 199 304C187.919 303.968 179.432 297.041 168 298.104C163.212 298.549 156.51 299.242 152 300.815C148.548 302.019 145.621 304.679 142 305.412C138.714 306.077 135.347 304.813 132 305.329C128.974 305.796 126.114 307.318 123 307.156C118.562 306.925 115.784 303.774 112 302.008C109.35 300.772 105.891 300.554 103 300.301C97.9077 299.856 93.7657 304.443 89 303.498C82.7293 302.256 76.6467 296.508 70 296.549C64.8703 296.58 60.6969 301.611 56 303.167C52.4982 304.328 48.5976 303.154 45 303z"/>
<path style="fill:#d1e8fe; stroke:none;" d="M168 297C171.163 298.327 174.586 298 178 298C174.837 296.673 171.414 297 168 297M79.6667 299.333C79.2223 299.778 80.2778 299.722 80.3333 299.667C80.7778 299.222 79.7222 299.278 79.6667 299.333M99.6667 299.333C99.2223 299.778 100.278 299.722 100.333 299.667C100.778 299.222 99.7222 299.278 99.6667 299.333z"/>
<path style="fill:#bfdfff; stroke:none;" d="M154 299C156.89 300.213 159.874 299.998 163 300C160.11 298.787 157.126 299.002 154 299z"/>
<path style="fill:#d1e8fe; stroke:none;" d="M104 300C105.506 300.683 106.315 300.826 108 301C106.494 300.317 105.685 300.174 104 300z"/>
<path style="fill:#dbedfe; stroke:none;" d="M44 304L51 302C48.0461 300.949 45.8999 301.502 44 304z"/>
<path style="fill:#d1e8fe; stroke:none;" d="M50 303C51.769 303.779 53.0359 303.912 55 304C53.231 303.221 51.9641 303.088 50 303M190 303C192.613 304.098 195.164 303.993 198 304C195.387 302.902 192.835 303.007 190 303M138 305C140.052 305.874 141.747 305.953 144 306C141.948 305.126 140.253 305.047 138 305z"/>
<path style="fill:#aad5ff; stroke:none;" d="M517 306C517 308.87 517.431 312.251 516.397 314.985C513.15 323.569 503.706 322.966 497 326.554C489.627 330.499 484.391 335.075 476 337C477.329 342.658 481.127 347.046 484.012 352C487.892 358.664 490.699 366.123 499 368.772C506.571 371.188 514.458 367.915 521.946 370.013C525.24 370.936 526.302 374.367 529.129 375.973C534.606 379.085 541.88 379.845 548 380C552.318 374.491 555.133 371.219 553 364C548.233 365.9 541.184 363.101 540.958 356.996C540.821 353.274 544.385 349.487 545.459 346C546.004 344.229 545.862 341.904 547.027 340.377C549.756 336.798 554.185 342.864 557.377 339.522C560.12 336.651 556.537 333.584 554.266 331.993C551.275 329.897 548.313 330.467 545 329.487C541.426 328.429 538.646 325.945 535 325C535.56 317.572 541.989 312.867 546 307C543.778 307.81 542.01 308.739 540 310L539 305C531.145 306.155 524.93 306.341 517 306z"/>
<path style="fill:#dbedfe; stroke:none;" d="M122 308C124.092 307.594 124.02 307.783 125 306C123.42 306.684 123.223 306.805 122 308z"/>
<path style="fill:#d1e8fe; stroke:none;" d="M522 306C523.769 306.779 525.036 306.912 527 307C525.231 306.221 523.964 306.088 522 306M48 314L48 327C49.5909 323.209 49.5909 317.791 48 314M372 316L372 321C372.83 318.97 372.83 318.03 372 316z"/>
<path style="fill:#aad5ff; stroke:none;" d="M582 329C576.53 326.051 573.591 328.531 568 327.754C564.087 327.21 560.968 324.576 557 324C558.213 327.853 560.704 328.598 564.001 330.654C569.687 334.201 575.144 337.56 582 338C582.001 345.571 582.827 350.827 591 353L593 349C597.159 350.672 599.095 352.564 600 357C595.008 357.164 589.744 361.005 592.156 366.91C593.595 370.435 596.894 372.14 598 376C602.381 376.036 608.24 375.449 612.424 376.444C615.663 377.215 618.269 379.533 621.83 378.667C625.664 377.734 631.795 370.67 628.356 366.815C625.614 363.741 619.828 362.801 616 362L616 360C622.437 358.976 628.791 360.357 635 362L636 361L636 359C631.427 356.035 625.295 352.258 621.56 348.363C616.493 343.077 614.864 333.993 610.214 328.055C606.923 323.851 601.405 322.122 597 319.296C595.299 318.205 593.304 316.565 591.129 316.906C586.763 317.591 583.104 325.313 582 329z"/>
<path style="fill:#cee6ff; stroke:none;" d="M197 321L197 328C198.059 325.466 198.059 323.534 197 321M439 329L439 334C439.83 331.97 439.83 331.031 439 329z"/>
<path style="fill:#c3e1ff; stroke:none;" d="M549 329C550.506 329.683 551.315 329.826 553 330C551.494 329.317 550.685 329.174 549 329z"/>
<path style="fill:#aad5ff; stroke:none;" d="M554 329C555.526 331.447 558.816 333.392 559.748 336.09C560.772 339.055 557.486 342.717 554.422 342.289C552.311 341.993 549.949 339.886 548 339C547.925 345.384 545.676 351.556 541 356C543.839 362.082 547.695 365.264 554 362C554.949 365.378 556.565 369.416 555.247 372.896C553.962 376.288 550.57 378.608 549 382L560 387C558.339 391.671 558.342 401.823 565.105 403.007C567.81 403.48 571.304 401.478 574 401L573 408C579.588 405.083 587.074 403.406 593 409L595 409C598.947 402.03 599.397 393.461 607 390C606.542 387.123 607.816 382.082 605.968 379.742C604.161 377.454 600.593 378.46 598.313 376.974C596.608 375.862 596.102 373.894 595.035 372.281C593.63 370.158 591.359 368.512 590.633 365.985C589.791 363.051 590.968 359.069 591 356L598 356C596.262 348.014 592.221 354.914 587.205 353.353C580.842 351.374 580.348 344.306 581 339C570.847 337.988 563.862 329.989 554 329z"/>
<path style="fill:#dbeeff; stroke:none;" d="M365 331L364 336C365.808 334.036 366.204 333.402 365 331z"/>
<path style="fill:#d2e9ff; stroke:none;" d="M423 331C425.052 331.874 426.747 331.953 429 332C426.948 331.126 425.253 331.047 423 331z"/>
<path style="fill:#d1e8fe; stroke:none;" d="M359 338L359 345C360.059 342.466 360.059 340.534 359 338M419.333 340.667C419.278 340.722 419.222 341.778 419.667 341.333C419.722 341.278 419.778 340.222 419.333 340.667M546 342L546 346C546.71 344.24 546.71 343.76 546 342z"/>
<path style="fill:#aad5ff; stroke:none;" d="M366 366C362.267 366.033 359.381 366.372 356 368C349.99 359.769 348.235 374.87 341.995 373.914C337.373 373.205 335.331 368 331.715 365.693C329.325 364.168 326.647 364.996 324 364.777C317.529 364.241 312.631 362.706 306.001 363.924C303.731 364.341 300.586 364.743 299.662 367.264C298.331 370.895 302.732 373.627 304.961 375.615C309.425 379.594 313.966 386.076 315.389 392C316.026 394.654 315.13 397.326 315.659 400C316.546 404.483 318.732 408.326 318.96 413C319.404 422.126 318.108 432.224 322.029 440.851C324.627 446.569 330.035 439.454 333.228 443.376C334.641 445.112 333.848 447.631 335.062 449.454C336.758 452 340.594 453.129 342.787 455.305C346.226 458.718 348.405 463.773 350.691 468C352.623 471.572 354.546 478.783 358.39 480.713C362.204 482.628 366.674 477.964 371 479C376.575 474.311 372.289 469.898 374.274 464C376.049 458.725 380.49 454.416 382.565 449.039C383.703 446.09 386.88 438.807 390.89 439.89C395.632 441.172 394.887 447.758 398.559 449.864C403.17 452.509 406.517 446.445 410 453C414.438 453 418.662 453.033 423 452C421.29 448.708 415.505 446.5 415.148 442.9C414.961 441.012 416.351 438.71 417 437C420.028 437.802 422.876 438.689 426 439C425.294 435.958 424.584 432.766 422.49 430.329C420.435 427.938 416.899 426.803 415.603 423.79C411.277 413.731 420.967 409.532 429 411C430.6 405.909 434.134 403.979 436.686 399.675C439.365 395.157 438.128 390.767 444 389C444 386.175 444.689 382.084 442.972 379.638C440.23 375.731 434.583 376.237 432 372L417 373L417 369C410.212 369.376 407.148 376.409 400.001 373.981C394.63 372.157 395.069 367.956 391.401 365.058C387.491 361.968 382.822 360.976 379.314 356.83C377.708 354.932 377.274 351.492 375.262 350.068C372.735 348.278 366.667 350.502 365.735 353.394C365.133 355.264 366.318 357.184 366.595 358.999C366.953 361.342 366.336 363.687 366 366z"/>
<path style="fill:#d1e8fe; stroke:none;" d="M543 349L543 352C543.696 350.446 543.696 350.554 543 349z"/>
<path style="fill:#cee6ff; stroke:none;" d="M485 353L485 358C485.83 355.97 485.83 355.03 485 353z"/>
<path style="fill:#d1e8fe; stroke:none;" d="M591 356L591 362C591.951 359.715 591.951 358.285 591 356M209.667 359.333C209.222 359.778 210.278 359.722 210.333 359.667C210.778 359.222 209.722 359.278 209.667 359.333M466 360C470.217 361.769 475.459 361 480 361C475.783 359.231 470.541 360 466 360z"/>
<path style="fill:#aad5ff; stroke:none;" d="M466 361C468.587 363.962 471.198 365.086 475 366C472.957 368.335 468.755 370.343 467.643 373.224C464.191 382.165 478.168 386.523 476.396 395.942C474.205 407.582 449.288 400.827 456.549 415.715C457.368 417.395 458.659 418.702 459.887 420.085C461.835 422.276 463.681 424.227 466 426C467.726 422.309 470.652 418.235 475 417.452C478.089 416.896 480.857 417.858 484 417C479.926 406.827 497.829 410.004 503 412.849C504.937 413.914 506.718 415.583 509 415.857C511.97 416.215 515.284 413.998 518 413L519 417C521.003 415.947 524.294 412.316 526.697 413.206C530.177 414.495 528.026 421.157 533.059 420.292C540.574 418.999 545.816 411.233 552 407.689C554.948 405.999 558.808 406.284 562 405C560.101 398.407 556.49 394.097 558 387C553.617 385.97 550.304 382.858 546 381.723C540.598 380.299 534.074 380.27 529.058 377.543C526.425 376.112 525.369 372.793 522.701 371.653C516.821 369.139 509.144 372.252 503 370.956C495.836 369.445 492.446 363.532 486.015 361.103C480.824 359.142 471.629 361 466 361M632 368C630.196 372.467 629.202 374.809 632 379C638.153 375.398 639.727 370.66 632 368z"/>
<path style="fill:#d1e8fe; stroke:none;" d="M56 371L56 374C56.6961 372.446 56.6961 372.554 56 371M504.667 371.333C504.222 371.778 505.278 371.722 505.333 371.667C505.778 371.222 504.722 371.278 504.667 371.333z"/>
<path style="fill:#cde8ff; stroke:none;" d="M398 372C399.506 372.683 400.315 372.826 402 373C400.494 372.317 399.685 372.174 398 372z"/>
<path style="fill:#d1e8fe; stroke:none;" d="M401 374C403.052 374.874 404.747 374.953 407 375C404.948 374.126 403.253 374.047 401 374z"/>
<path style="fill:#aad5ff; stroke:none;" d="M618 434C619.227 435.037 620.478 436.423 622.045 437.002C632.084 440.711 635.692 425.822 638 419C640.746 418.972 641.68 418.532 644 417C641.947 412.526 641.594 406.902 641 402L646 402C645.666 399.356 645.658 395.814 644.411 393.418C640.167 385.264 628.43 390.685 622 389L622 387C626.173 385.149 628.674 382.93 631 379C629.255 378.11 627.875 377.547 626 377C623.921 379.284 622.312 380.848 618.996 380.142C616.597 379.631 613.065 376.707 610.603 378.16C607.506 379.988 608.871 386.587 607.848 389.517C606.856 392.359 603.785 392.387 602.181 394.583C600.581 396.776 601.407 399.865 600.262 402.285C598.683 405.62 594.998 408.314 594.24 412C592.702 419.48 602.356 424.66 606.006 429.299C607.847 431.638 608.305 436.196 611.393 437.338C614.313 438.418 616.39 435.934 618 434M446 379L446 390C439.162 390.787 440.955 394.981 438.012 399.826C434.721 405.243 431.083 405.993 431 413C425.662 412.1 422.332 411.605 417 413C417 416.303 416.272 420.696 417.603 423.79C418.881 426.759 422.345 427.89 424.297 430.329C426.253 432.772 426.899 436.129 428 439L430 439C432.842 434.449 437.534 433.435 439 428C442.438 428.784 447.667 428.744 450.701 430.345C454.602 432.402 457.82 439.675 461 443C467.058 437.954 465.904 428.788 461.177 423.054C457.616 418.735 451.548 414.857 453.622 408.109C455.205 402.958 462.98 403.84 467 402.277C469.819 401.181 472.232 399.224 475 398C474.962 393.465 474.977 386.617 469.892 384.617C467.45 383.657 464.756 384.478 462.285 383.451C456.573 381.077 452.479 378.13 446 379z"/>
<path style="fill:#bfdfff; stroke:none;" d="M605 378C606.17 380.075 606.692 381.637 607 384C607.874 381.948 607.953 380.253 608 378L605 378z"/>
<path style="fill:#d7eafe; stroke:none;" d="M271 386C272.809 386.574 273.069 386.465 275 386C273.341 385.594 272.758 385.691 271 386z"/>
<path style="fill:#f7fbfe; stroke:none;" d="M622 388C625.83 390.886 628.651 388.757 633 388.704C641.692 388.596 645.972 394.137 646 402L641 402C641.268 406.458 641.103 412.598 644 416C641.879 417.787 640.73 418.713 638 419C634.521 426.437 633.072 434.41 625 438C626.943 438.622 627.949 438.436 630 438L626 448C624.381 447.859 622.112 447.323 621.322 449.358C620.515 451.435 622.298 453.988 622.702 456C623.534 460.148 623 464.783 623 469C616.847 469.48 611.449 480.078 611 486C607.845 486.037 603.859 485.808 602.232 489.148C601.18 491.309 601.614 493.793 600.389 495.981C598.463 499.423 594.982 501.58 592 504C588.734 492.664 581.682 487.509 570 487L573 471C568.748 476.397 567.486 486.41 569 493C561.562 488.992 555.313 493.526 548 496C549.602 490.97 552.939 487.489 552 482C546.193 482.763 543.606 483.161 540 478C539.426 479.809 539.535 480.069 540 482C533.411 483.087 523.299 480.744 526 491C522.737 490.137 517.725 487.734 514.584 490.029C512.783 491.344 512.356 493.921 510.691 495.441C508.701 497.26 506.565 497.745 505 500L510 498C512.572 506.407 508.578 510.715 505.164 518C503.684 521.158 504.617 524.86 502.972 527.91C501.478 530.68 498.503 532.054 496.599 534.463C494.093 537.633 492.964 540.969 489.999 544C487.017 547.049 483.199 552.625 478.96 553.678C473.568 555.018 468.659 551.007 464 549C468.367 555.809 474.865 555.562 482 555L481 565C483.174 560.911 482.552 555.993 485.148 552.058C486.736 549.651 489.18 548.507 491.124 546.498C494.215 543.304 496.02 539.587 498.584 536.086C500.265 533.79 502.803 532.27 504.397 529.911C506.623 526.615 505.516 522.514 507.164 519C511.122 510.553 514.183 506.582 512 497C514.818 495.177 514.895 493.285 515 490C519.193 490.429 522.878 492.268 527 493C526.882 490.47 526.365 487.383 528.407 485.422C530.574 483.341 533.392 484.573 536 484.555C541.002 484.519 546.018 484.613 551 484C549.894 486.923 545.974 491.486 546.828 494.681C547.432 496.942 550.209 496.787 552.005 496.452C555.725 495.759 559.158 493.1 562.998 493.104C565.354 493.107 567.773 494.335 570 495C570.563 492.429 570.436 490.607 570 488C574.131 489.267 579.007 489.512 582.699 491.974C587.129 494.927 589.586 501.092 591 506C595.755 503.914 600.274 500.671 602.817 495.995C604.033 493.759 603.784 490.449 605.562 488.603C607.146 486.958 609.667 487.255 611.454 485.981C615.546 483.064 619.539 475.659 618 471L624 470C624 462.886 624.824 455.664 622 449L627 450C631.172 441.081 636.537 430.765 638 421C647.652 420.584 644.092 409.043 642 403L647 403C647 400.002 647.64 396.027 646.397 393.225C642.36 384.125 628.963 388.936 622 388z"/>
<path style="fill:#d1e8fe; stroke:none;" d="M625.667 390.333C625.222 390.778 626.278 390.722 626.333 390.667C626.778 390.222 625.722 390.278 625.667 390.333z"/>
<path style="fill:#cde7ff; stroke:none;" d="M645 393L645 399C645.951 396.715 645.951 395.285 645 393z"/>
<path style="fill:#aad5ff; stroke:none;" d="M533 451C537.023 453.218 536.331 455.993 537.888 459.91C539.364 463.623 541.945 465.713 541.941 470.001C541.938 473.726 539.516 479.555 543.318 482.223C545.76 483.936 549.376 482.532 552 482C552.278 487.272 548.973 490.967 548 496C555.826 494.145 561.053 489.794 569 493C567.253 482.411 572.532 473.881 575.059 464C575.811 461.061 574.738 458.034 575.553 455.17C576.364 452.323 578.978 450.518 580.352 447.985C582.104 444.756 581.751 441.166 584.062 438.073C587.576 433.372 595.089 434.45 597.929 428.816C601.019 422.684 591.862 415.85 593 409C588.545 407.939 584.333 408.403 581 405C577.524 406.58 574.706 408.973 571 410L573 403C562.12 404.114 552.67 409.927 544 415.867C541.505 417.576 537.408 418.487 535.816 421.228C533.461 425.284 538.736 429.783 538.508 434C538.318 437.538 535.365 439.942 533.988 443C532.848 445.53 533.01 448.292 533 451z"/>
<path style="fill:#cde8ff; stroke:none;" d="M552 406C553.506 406.683 554.315 406.826 556 407C554.494 406.317 553.685 406.174 552 406M583 406C585.89 407.213 588.874 406.998 592 407C589.11 405.787 586.126 406.002 583 406z"/>
<path style="fill:#d1e8fe; stroke:none;" d="M318 408L318 420C319.512 416.396 319.512 411.604 318 408z"/>
<path style="fill:#aad5ff; stroke:none;" d="M483 412C485.558 422.712 472.476 415.882 468.179 424.04C463.677 432.587 469.751 442.434 469.222 451C468.995 454.683 465.775 457.91 464 461C473.46 459.953 470.259 466.797 471.434 472.995C472.143 476.74 474.668 479.421 478.383 477.515C479.596 476.894 480.886 475.76 482 475C482 476.797 482.014 476.521 483 478C489.025 475.258 498.208 467.665 500 479L503 479C502.503 484.522 499.531 488.787 498 494L503 491L505 498C507.254 497.507 509.705 497.148 511.417 495.437C513.247 493.608 513.461 490.633 516.147 489.647C519.118 488.556 523.028 490.497 526 491C524.385 481.079 533.503 483.493 540 482C538.911 476.99 540.821 472.034 539.701 467.09C538.453 461.585 535.141 458.032 535 452L531 452C531.002 449.484 530.66 446.561 531.6 444.17C533.396 439.6 537.448 437.564 536.772 432C535.758 423.665 527.262 421.811 527 413L518 419L517 415C514.648 415.598 511.826 417.596 509.424 417.549C506.198 417.487 503.085 413.99 500 412.993C494.672 411.271 488.524 412 483 412z"/>
<path style="fill:#d1e8fe; stroke:none;" d="M527 414L527 420C527.951 417.715 527.951 416.285 527 414M540.667 417.333C540.222 417.778 541.278 417.722 541.333 417.667C541.778 417.222 540.722 417.278 540.667 417.333z"/>
<path style="fill:#e5f1fe; stroke:none;" d="M466 427L465 440C467.66 436.489 467.691 431.029 466 427z"/>
<path style="fill:#aad5ff; stroke:none;" d="M600 428C596.376 432.724 592.088 435.956 586 436C578.893 452.029 572.283 469.324 570 487C581.797 487.965 587.551 493.318 592 504C595.203 502.095 598.396 500.13 600.499 496.946C604.396 491.046 602.073 486.29 611 486C611.601 482.059 613.735 480.222 615.822 476.961C618.37 472.977 617.709 469.851 623 469C622.205 464.519 623.261 460.426 622.846 456C622.665 454.063 621.204 451.366 622.123 449.487C622.883 447.935 624.602 448.142 626 448C627.843 444.759 629.138 441.629 630 438C625.226 439.035 622.928 439.142 619 436C615.561 438.476 613.309 439.859 609 440C607.992 434.329 606.028 429.253 600 428z"/>
<path style="fill:#d1e8fe; stroke:none;" d="M603.667 428.333C603.222 428.778 604.278 428.722 604.333 428.667C604.778 428.222 603.722 428.278 603.667 428.333z"/>
<path style="fill:#aad5ff; stroke:none;" d="M440 430C437.834 435.342 432.709 436.167 430 441C424.229 439.739 418.094 437.885 415 444C419.642 446.005 423.251 448.09 425 453C420.958 453.924 415.045 453.881 411.414 455.603C408.736 456.873 407.852 460.099 404.945 461.254C398.27 463.905 386.086 457.958 387.928 469.955C388.15 471.398 388.561 472.611 389 474C390.301 473.707 391.719 473.242 393.044 473.059C403.77 471.577 396.823 483.684 397.487 489C398.114 494.022 400.981 497.567 401 503C404.053 502.548 406.959 500.546 410 500.488C414.348 500.406 418.574 503.547 423 504C424.609 498.314 432.88 491.32 439 490.645C444.564 490.032 448.101 496.238 453.26 491.008C454.063 490.194 454.485 488.961 455 488C457.042 488.895 458.828 489.536 461 490C463.814 486.622 469.14 484.017 470.865 479.91C472.036 477.121 470.068 474.702 469.668 472C469.229 469.034 470.406 465.883 471 463C467.66 462.031 464.459 462.183 461 462C467.099 454.99 468.513 450.942 466 442L460 445C457.63 439.888 453.218 436.237 451 431C447.265 430.969 443.695 430.467 440 430M317 431C313.052 436.75 314.509 446.949 306 446L307 456C313.989 457.457 314.203 463.842 313.424 470C312.895 474.177 314.094 479.974 311.972 483.715C307.872 490.944 300.143 493.867 296.735 502C294.687 506.886 295.913 511.854 295 517C301.14 515.733 306.716 515 313 515C312.047 518.574 312.428 526.35 315.603 528.988C317.624 530.667 321.532 531.098 324 532C322.256 535.167 317.964 542.816 320.132 546.437C321.763 549.161 327.195 549.587 330 550C330.089 551.328 330.024 552.752 330.514 554.025C334.313 563.894 340.859 554.005 346.697 556.302C349.151 557.268 349.519 560.804 350 563C352.442 563.109 354.623 563.428 357 564C357 559.074 354.036 547.096 357.668 543.603C363.87 537.642 375.375 543.722 381 538C388.124 540.821 396.502 539.625 402.985 535.397C408.409 531.86 409.813 526.656 417 529C418.236 525.629 419.45 524.576 423 524C424.834 512.172 405.236 516.653 399.933 508.852C397.369 505.081 399.88 501.045 399.397 497C398.999 493.675 396.159 491.386 395.932 488C395.576 482.685 398.482 478.392 397 473L388 476C385.992 469.621 385.588 466.302 388 460C394.06 461.318 400.774 460 407 460C407.266 458.981 407.612 457.877 407.848 456.84C410.038 447.213 401.57 453.674 397.317 451.045C394.551 449.335 393.906 443.896 393 441L388 441C386.685 449.126 379.001 455.461 376.078 463C374.839 466.197 376.303 469.687 375.849 473C375.429 476.056 373.6 478.456 372 481C366.748 478.481 362.742 484.051 358.213 481.829C352.021 478.791 349.01 466.609 345.648 461C342.875 456.373 339.036 454.668 335.166 451.318C332.72 449.201 332.964 447.705 334 445C330.035 441.371 325.831 445.64 321 446C320.599 440.958 319.974 435.175 317 431z"/>
<path style="fill:#cee6ff; stroke:none;" d="M434 435C435.506 435.683 436.315 435.826 438 436C436.494 435.317 435.685 435.174 434 435z"/>
<path style="fill:#d1e8fe; stroke:none;" d="M589.667 436.333C589.222 436.778 590.278 436.722 590.333 436.667C590.778 436.222 589.722 436.278 589.667 436.333z"/>
<path style="fill:#e5f2fe; stroke:none;" d="M146 437C149.959 438.661 154.737 438 159 438C155.041 436.339 150.263 437 146 437z"/>
<path style="fill:#d2e9ff; stroke:none;" d="M204 441C205.769 441.779 207.036 441.912 209 442C207.231 441.221 205.964 441.088 204 441z"/>
<path style="fill:#cee6ff; stroke:none;" d="M581 441L581 445C581.71 443.241 581.71 442.759 581 441z"/>
<path style="fill:#e0f1ff; stroke:none;" d="M322 443C323.786 445.34 325.129 445.419 328 445C326.059 444.049 324.102 443.561 322 443z"/>
<path style="fill:#cee6ff; stroke:none;" d="M396 446L396 450C396.71 448.24 396.71 447.76 396 446M536 452L536 458C536.951 455.715 536.951 454.285 536 452z"/>
<path style="fill:#d2e9ff; stroke:none;" d="M413 453C415.052 453.874 416.747 453.953 419 454C416.948 453.126 415.253 453.047 413 453M398 461C400.393 461.741 402.493 461.302 405 461C402.477 460.01 400.642 460.383 398 461z"/>
<path style="fill:#d7eafe; stroke:none;" d="M622 461L622 467C622.951 464.715 622.951 463.285 622 461z"/>
<path style="fill:#bfdfff; stroke:none;" d="M313 462L313 470C314.161 467.23 314.161 464.77 313 462z"/>
<path style="fill:#d4eaff; stroke:none;" d="M373 463L373 466C373.696 464.446 373.696 464.554 373 463z"/>
<path style="fill:#e5f1fd; stroke:none;" d="M541 464C540.571 469.423 538.943 474.581 540 480C542.2 475.423 542.988 468.737 541 464z"/>
<path style="fill:#aad5ff; stroke:none;" d="M653 522C653.009 508.493 658.834 495.626 658.996 482C659.037 478.592 660.314 471.247 656.682 469.238C649.286 465.146 643.937 479.439 642.308 484C637.369 497.829 638.349 514.181 653 522M482 480C482 478.203 481.986 478.478 481 477C477.572 479.831 473.681 480.63 470.09 483.027C464.646 486.66 462.106 491.103 455 490C451.355 496.048 445.823 496.071 441 491C435.785 492.225 430.137 495.742 426.299 499.517C424.775 501.015 423.8 503.813 421.701 504.594C417.866 506.022 413.846 501.629 410 501.703C406.57 501.769 403.474 504.476 400 505C401.45 509.777 410.211 513.358 415.039 514.521C417.918 515.214 421.373 514.993 423.508 517.434C428.683 523.351 417.397 525.08 418.752 529.909C420.132 534.829 429.305 531.643 432.747 534.6C435.787 537.211 433.437 540.697 434.262 543.985C435.599 549.308 441.914 552.993 447 553.786C450.04 554.261 454.064 554.414 457 553.402C459.397 552.576 461.38 550.38 464 550.248C468.99 549.996 472.45 554.466 477.985 553.552C487.032 552.06 491.697 541.68 496.599 535.296C498.452 532.883 501.46 531.527 502.972 528.826C504.483 526.129 503.689 522.849 504.738 520C507.683 512.01 513.791 507.057 510 498C508.125 498.547 506.745 499.11 505 500C504.159 497.533 503.222 495.301 502 493L496 496C497.417 490.377 500.978 485.73 502 480L498 480L498 474C491.239 473.18 487.756 477.379 482 480z"/>
<path style="fill:#d1e8fe; stroke:none;" d="M312 474L312 485C313.431 481.59 313.431 477.41 312 474M359.667 483.333C359.222 483.778 360.278 483.722 360.333 483.667C360.778 483.222 359.722 483.278 359.667 483.333z"/>
<path style="fill:#aad5ff; stroke:none;" d="M527 493C522.899 491.83 519.314 490.224 515 490C514.77 493.198 514.296 494.766 512 497C512.726 502.058 513.434 506.089 511.315 511C510.089 513.84 507.81 516.093 506.738 519C505.665 521.912 506.411 525.177 504.972 527.985C502.825 532.175 498.325 536.733 495.474 540.625C492.549 544.618 486.827 547.698 484.854 552.058C482.521 557.213 481.364 569.898 488.324 572.338C496.145 575.079 490.347 564.239 490.73 562.004C491.128 559.681 493.267 557.904 495.008 556.532C499.493 553 505.009 552.168 509.961 549.611C512.154 548.479 513.868 546.502 516.17 545.598C520.175 544.024 524.792 544.204 528.911 542.532C533.009 540.868 535.741 537.449 540 536C539.011 532.261 538.091 528.892 538 525C540.406 526.475 543.085 528.862 546 529.097C548.812 529.324 551.469 527.482 554 526.538C559.767 524.387 567.538 524.649 571 519C580.921 521.699 584.57 511.39 591 506C588.837 493.865 580.68 491.009 570 488C570.201 490.419 570.272 492.591 570 495C562.919 491.881 560.018 493.819 553.001 495.938C551.193 496.484 548.261 497.162 547.447 494.748C546.447 491.784 550.297 486.995 551 484C545.779 484.354 540.189 484.414 535 484.152C532.356 484.018 529.653 482.879 527.643 485.333C525.9 487.461 526.717 490.534 527 493z"/>
<path style="fill:#d1e8fe; stroke:none;" d="M575 489C576.249 489.685 576.548 489.749 578 490C576.752 489.315 576.452 489.251 575 489z"/>
<path style="fill:#c3e1ff; stroke:none;" d="M580 491C581.506 491.683 582.315 491.826 584 492C582.494 491.317 581.685 491.174 580 491z"/>
<path style="fill:#d1e8fe; stroke:none;" d="M548.667 497.333C548.222 497.778 549.278 497.722 549.333 497.667C549.778 497.222 548.722 497.278 548.667 497.333M297 499L297 502C297.696 500.446 297.696 500.554 297 499z"/>
<path style="fill:#cde8ff; stroke:none;" d="M400 501C400.578 503.697 401.261 503.789 404 504L400 501z"/>
<path style="fill:#d1e8fe; stroke:none;" d="M294 504L294 508C294.71 506.241 294.71 505.759 294 504z"/>
<path style="fill:#cee6ff; stroke:none;" d="M401 511C403.331 511.984 405.457 511.981 408 512C405.668 511.015 403.543 511.019 401 511z"/>
<path style="fill:#d1e8fe; stroke:none;" d="M653.333 512.667C653.278 512.722 653.222 513.778 653.667 513.333C653.722 513.278 653.778 512.222 653.333 512.667z"/>
<path style="fill:#d2e9ff; stroke:none;" d="M412 527C413.248 527.685 413.548 527.749 415 528C413.752 527.315 413.452 527.251 412 527z"/>
<path style="fill:#aad5ff; stroke:none;" d="M553 531C550.521 532.337 548.81 532.816 546 533L546 536L555 536C554.697 533.706 554.422 532.789 553 531z"/>
<path style="fill:#d2e9ff; stroke:none;" d="M428 533C429.769 533.779 431.036 533.912 433 534C431.231 533.221 429.964 533.088 428 533z"/>
<path style="fill:#d1e9ff; stroke:none;" d="M546 536C548.332 536.985 550.457 536.981 553 537C550.668 536.015 548.543 536.019 546 536z"/>
<path style="fill:#aad5ff; stroke:none;" d="M537 541L537 545L543 543C540.987 541.775 539.342 541.355 537 541z"/>
<path style="fill:#bee0ff; stroke:none;" d="M357 542C359.89 543.213 362.874 542.998 366 543C363.11 541.787 360.126 542.002 357 542z"/>
<path style="fill:#d2e9ff; stroke:none;" d="M529.667 542.333C529.222 542.778 530.278 542.722 530.333 542.667C530.778 542.222 529.722 542.278 529.667 542.333M525.667 543.333C525.222 543.778 526.278 543.722 526.333 543.667C526.778 543.222 525.722 543.278 525.667 543.333z"/>
<path style="fill:#e5f2fe; stroke:none;" d="M514 545C516.613 546.098 519.165 545.993 522 546C519.387 544.902 516.835 545.007 514 545z"/>
<path style="fill:#d1e8fe; stroke:none;" d="M355 546L355 549C355.696 547.446 355.696 547.554 355 546z"/>
<path style="fill:#dbedfe; stroke:none;" d="M478 553C479.506 553.683 480.315 553.826 482 554C480.494 553.317 479.685 553.174 478 553z"/>
<path style="fill:#d2e9ff; stroke:none;" d="M446 554C447.506 554.683 448.315 554.826 450 555C448.494 554.317 447.685 554.174 446 554z"/>
<path style="fill:#d1e8fe; stroke:none;" d="M483 554L483 559C483.83 556.97 483.83 556.03 483 554z"/>
<path style="fill:#bfdfff; stroke:none;" d="M357 555L357 564C358.256 561.006 358.256 557.994 357 555z"/>
<path style="fill:#d1e8fe; stroke:none;" d="M482 561L482 565C482.71 563.24 482.71 562.76 482 561z"/>
<path style="fill:#d2e9ff; stroke:none;" d="M351 563C352.769 563.779 354.036 563.912 356 564C354.231 563.221 352.964 563.088 351 563z"/>
<path style="fill:#aad5ff; stroke:none;" d="M497.956 578.054C488.448 578.519 476.354 581.049 470.434 589.015C463.984 597.692 473.178 609.135 483 608.357C492.953 607.569 496.732 594.14 500.556 587C502.398 583.561 503.821 577.767 497.956 578.054z"/>
<path style="fill:#d1e8fe; stroke:none;" d="M496 593L496 599C496.951 596.715 496.951 595.285 496 593z"/>
</svg>
